:SAMPLES-PER-SECOND 30
:FRAME-RANGE 1-2045
:FULLY-SPECIFIED
:DEGREES
831
root  14.4107 37.2161 13.3472 -0.0543997 77.6324 -11.4053
RightUpLeg  -20.349 -2.4648 -16.9641
RightLeg  27.4942 -6.93451 -4.12465
RightFoot  -22.4636 1.05306 12.3437
RightToes  -5.28216e-011 1.2921e-014 -6.02303e-014
Spine  18.4923 -0.679315 0.0951941
Spine1  0.631541 0.0738933 -3.60315
HEad  -19.6009 21.98 -13.068
LeftShoulder1  2.09157 -4.67837 -19.9973
LeftArm  9.48512 2.94875 -44.1295
LeftForeArm  -13.0263 -40.3599 -10.2797
LeftHand  0.204733 0.921675 -5.51773
RightShoulder  1.89543 3.51085 21.5657
RightArm  -2.59529 10.0068 51.2974
RightForeArm  10.0458 36.1962 7.61612
RightHand  -0.0316139 -5.20531 0.36511
LeftUpLeg  -39.5548 -1.30942 14.3611
LeftLeg  24.355 -6.60418 -2.91905
LeftFoot  1.23259 1.50084 -13.6397
LeftToes  9.43379e-011 5.24309e-011 -4.66411e-011
832
root  14.3323 37.1751 13.1942 -3.99772 78.141 -14.3393
RightUpLeg  -20.1105 -0.550713 -15.7286
RightLeg  31.3563 -3.49423 -2.53052
RightFoot  -23.8597 1.29969 13.2791
RightToes  -5.28216e-011 1.2921e-014 -6.02303e-014
Spine  18.0895 -0.474386 -0.655672
Spine1  0.543513 0.195029 -3.75695
HEad  -19.8633 22.4258 -13.2019
LeftShoulder1  2.011 -4.30718 -20.2313
LeftArm  8.21464 3.98095 -42.3229
LeftForeArm  -13.6306 -40.3001 -10.2923
LeftHand  0.240326 0.608643 -5.97882
RightShoulder  1.97712 3.74266 21.8332
RightArm  -0.867065 12.0905 53.2514
RightForeArm  11.0935 35.5774 7.37796
RightHand  -0.0307454 -5.11816 0.26886
LeftUpLeg  -39.2728 -1.8355 14.6084
LeftLeg  25.1712 -6.91738 -3.19281
LeftFoot  1.4276 1.4445 -12.9441
LeftToes  9.43379e-011 5.24309e-011 -4.66411e-011
833
root  14.159 37.112 13.1323 -8.52847 78.7592 -17.8578
RightUpLeg  -20.1766 0.973732 -13.5078
RightLeg  36.2193 -1.33768 -1.30665
RightFoot  -25.3073 1.47551 13.401
RightToes  -5.28216e-011 1.2921e-014 -6.02303e-014
Spine  17.614 -0.274228 -1.31986
Spine1  0.55644 0.303147 -3.84147
HEad  -19.9415 22.3917 -13.1916
LeftShoulder1  1.96732 -4.19913 -20.0145
LeftArm  6.24372 4.9494 -40.9902
LeftForeArm  -13.7087 -40.0061 -10.1953
LeftHand  0.277968 0.224808 -6.33041
RightShoulder  2.03147 3.94622 21.7974
RightArm  1.70528 14.8657 55.6298
RightForeArm  10.844 33.6474 6.86705
RightHand  -0.0231444 -4.59273 0.328442
LeftUpLeg  -38.9936 -2.47417 15.075
LeftLeg  25.6757 -7.20267 -3.41577
LeftFoot  1.7018 1.43844 -12.6336
LeftToes  9.43379e-011 5.24309e-011 -4.66411e-011
834
root  13.9266 37.0398 13.16 -12.9074 79.8674 -21.2955
RightUpLeg  -20.2149 2.22 -10.7389
RightLeg  40.7905 -0.431861 -0.677246
RightFoot  -26.6621 1.71361 14.0307
RightToes  -5.28216e-011 1.2921e-014 -6.02303e-014
Spine  16.9167 -0.0540138 -2.02681
Spine1  0.707107 0.401619 -3.76541
HEad  -19.3985 21.6872 -12.7023
LeftShoulder1  1.93168 -4.09974 -19.8752
LeftArm  4.53107 5.25229 -39.6329
LeftForeArm  -13.7424 -39.7744 -10.1181
LeftHand  0.305137 -0.0725983 -6.52554
RightShoulder  2.07345 4.16719 21.5172
RightArm  3.56033 16.9185 57.9995
RightForeArm  10.9022 32.4245 6.54388
RightHand  -0.0203871 -4.44042 0.524641
LeftUpLeg  -38.7741 -3.85182 15.5949
LeftLeg  25.631 -7.24465 -3.43007
LeftFoot  2.16719 1.50964 -12.8162
LeftToes  9.43379e-011 5.24309e-011 -4.66411e-011
835
root  13.6358 36.9415 13.2563 -18.4504 81.9929 -25.8835
RightUpLeg  -19.824 1.67457 -8.0599
RightLeg  44.2817 1.79647 1.57722
RightFoot  -28.4487 1.98304 14.4089
RightToes  -5.28216e-011 1.2921e-014 -6.02303e-014
Spine  16.3667 -0.094339 -2.63478
Spine1  0.651632 0.281042 -3.90205
HEad  -18.5806 20.2913 -11.9344
LeftShoulder1  1.915 -4.11979 -19.5581
LeftArm  3.01356 5.42783 -38.5126
LeftForeArm  -13.6338 -39.8193 -10.1275
LeftHand  0.319631 -0.176714 -6.69325
RightShoulder  2.07958 4.26089 21.2378
RightArm  4.64123 18.0666 59.9322
RightForeArm  11.5117 31.9337 6.38322
RightHand  -0.012606 -4.10326 0.949862
LeftUpLeg  -38.695 -5.76138 15.7249
LeftLeg  25.0288 -7.66695 -3.54834
LeftFoot  2.80915 1.64948 -13.3789
LeftToes  9.43379e-011 5.24309e-011 -4.66411e-011
836
root  13.2977 36.7776 13.4357 -26.9563 84.7503 -33.3801
RightUpLeg  -19.4188 1.93853 -5.82723
RightLeg  47.3932 5.93813 6.56304
RightFoot  -31.2858 2.39729 14.7798
RightToes  -5.28216e-011 1.2921e-014 -6.02303e-014
Spine  15.7502 -0.248104 -3.50718
Spine1  0.819334 0.0563766 -4.10741
HEad  -17.9722 18.9934 -11.4518
LeftShoulder1  1.90627 -4.11194 -19.4609
LeftArm  1.57667 5.5128 -37.4675
LeftForeArm  -13.4831 -40.0664 -10.2037
LeftHand  0.329948 -0.235284 -6.82963
RightShoulder  2.03503 4.18006 20.916
RightArm  5.70989 18.9836 61.3811
RightForeArm  11.9736 31.8057 6.32422
RightHand  0.000668749 -3.85088 1.73186
LeftUpLeg  -38.8101 -7.78171 15.4049
LeftLeg  24.3948 -8.48206 -3.84185
LeftFoot  3.38843 1.83269 -14.2784
LeftToes  9.43379e-011 5.24309e-011 -4.66411e-011
837
root  12.8925 36.5371 13.6709 -56.3639 87.4201 -61.5682
RightUpLeg  -18.908 3.09695 -3.74811
RightLeg  50.5845 10.2751 12.801
RightFoot  -33.7985 2.82877 15.3364
RightToes  -5.28216e-011 1.2921e-014 -6.02303e-014
Spine  15.5182 -0.387546 -4.25703
Spine1  0.959567 -0.154249 -4.23181
HEad  -17.63 17.5502 -11.1491
LeftShoulder1  1.88731 -4.00985 -19.5675
LeftArm  0.331875 5.57328 -36.8633
LeftForeArm  -13.333 -40.334 -10.2877
LeftHand  0.353319 -0.373868 -7.12
RightShoulder  2.01368 4.2177 20.4654
RightArm  7.0857 19.6677 62.0966
RightForeArm  11.7408 31.9993 6.38669
RightHand  0.00660932 -3.83168 2.16853
LeftUpLeg  -39.1427 -10.0286 15.1019
LeftLeg  24.1498 -9.33404 -4.20684
LeftFoot  3.98216 2.12465 -15.889
LeftToes  9.43379e-011 5.24309e-011 -4.66411e-011
838
root  12.4418 36.3306 13.9211 -134.602 87.3376 -138.271
RightUpLeg  -17.9555 4.51802 -1.57971
RightLeg  52.7885 11.3002 15.1823
RightFoot  -34.3013 2.90845 15.3989
RightToes  -5.28216e-011 1.2921e-014 -6.02303e-014
Spine  15.4738 -0.387947 -4.61902
Spine1  1.12482 -0.255365 -4.11908
HEad  -17.0214 16.0672 -10.6216
LeftShoulder1  1.86649 -3.9565 -19.4628
LeftArm  -1.83405 6.12514 -37.3554
LeftForeArm  -12.3504 -40.608 -10.3284
LeftHand  0.325882 -0.309415 -6.64795
RightShoulder  2.012 4.28986 20.1694
RightArm  9.2448 20.6541 62.1731
RightForeArm  9.88027 31.5503 6.37955
RightHand  0.00908799 -3.98102 2.82551
LeftUpLeg  -38.8872 -12.5729 14.8567
LeftLeg  23.2062 -9.98389 -4.32098
LeftFoot  4.84118 2.44411 -17.2881
LeftToes  9.43379e-011 5.24309e-011 -4.66411e-011
839
root  11.9775 36.2442 14.1475 -162.046 84.6159 -164.205
RightUpLeg  -16.6228 5.93108 0.532951
RightLeg  52.8316 10.0463 13.5592
RightFoot  -31.226 1.752 11.1811
RightToes  -5.28216e-011 1.2921e-014 -6.02303e-014
Spine  14.9057 -0.514705 -4.28431
Spine1  1.81438 -0.404517 -3.89802
HEad  -16.1913 14.8614 -10.2883
LeftShoulder1  1.86245 -3.92721 -19.5146
LeftArm  -4.60822 7.36322 -38.0752
LeftForeArm  -10.7508 -41.4935 -10.5506
LeftHand  0.297158 -0.120201 -6.29376
RightShoulder  1.94913 4.16921 19.7206
RightArm  12.5426 22.3515 62.9847
RightForeArm  6.34986 30.0441 6.20261
RightHand  0.00598182 -4.10788 2.76407
LeftUpLeg  -37.886 -14.562 14.3752
LeftLeg  21.0419 -11.0322 -4.1043
LeftFoot  5.43695 2.97721 -20.2294
LeftToes  9.43379e-011 5.24309e-011 -4.66411e-011
840
root  11.4208 36.1922 14.3932 -171.028 81.4658 -171.967
RightUpLeg  -15.0562 6.12756 2.4043
RightLeg  51.0232 6.23753 7.86058
RightFoot  -30.0551 -0.229497 -0.15343
RightToes  -5.28216e-011 1.2921e-014 -6.02303e-014
Spine  14.3246 -0.735871 -3.79111
Spine1  2.27385 -0.63533 -3.5646
HEad  -15.5311 13.773 -10.3513
LeftShoulder1  1.83609 -3.78621 -19.6649
LeftArm  -7.12251 8.75576 -38.8939
LeftForeArm  -9.85869 -42.0387 -10.6958
LeftHand  0.257533 0.252076 -5.90315
RightShoulder  1.90771 4.11334 19.3282
RightArm  15.4249 24.1671 64.0307
RightForeArm  4.50984 28.6702 5.96973
RightHand  -0.000349872 -4.34654 2.85544
LeftUpLeg  -36.3996 -13.4876 12.102
LeftLeg  18.3229 -14.7619 -3.75449
LeftFoot  5.31766 3.46235 -23.5723
LeftToes  9.43379e-011 5.24309e-011 -4.66411e-011
841
root  10.7224 36.1395 14.688 -175.004 78.4497 -175.583
RightUpLeg  -14.4781 3.98188 3.41956
RightLeg  48.7068 3.37883 3.78338
RightFoot  -31.0934 -0.630513 -2.40705
RightToes  -5.28216e-011 1.2921e-014 -6.02303e-014
Spine  13.3656 -0.73234 -3.22289
Spine1  2.74409 -0.520392 -3.41433
HEad  -15.373 12.3175 -10.6568
LeftShoulder1  1.77212 -3.4912 -19.86
LeftArm  -9.05917 9.77861 -40.1891
LeftForeArm  -9.69545 -42.2198 -10.7525
LeftHand  0.237031 0.500944 -5.75144
RightShoulder  1.84653 4.00672 18.8256
RightArm  17.2984 25.6225 64.8811
RightForeArm  2.64459 28.3479 5.99339
RightHand  -0.0246922 -5.1223 2.36297
LeftUpLeg  -35.5867 -8.61966 8.23676
LeftLeg  15.7666 -20.1336 -3.20379
LeftFoot  2.99335 3.10601 -24.5073
LeftToes  9.43379e-011 5.24309e-011 -4.66411e-011
842
root  9.95598 36.3051 14.9633 -174.73 75.3845 -175.146
RightUpLeg  -14.6726 2.53163 4.39072
RightLeg  46.623 1.50028 1.38142
RightFoot  -30.3221 -0.547866 -2.04461
RightToes  -5.28216e-011 1.2921e-014 -6.02303e-014
Spine  12.6251 -0.748721 -1.50073
Spine1  3.24068 -0.27303 -3.48602
HEad  -16.1188 10.5773 -11.2622
LeftShoulder1  1.72012 -3.19316 -20.2833
LeftArm  -10.5686 10.5632 -41.344
LeftForeArm  -9.23023 -42.5071 -10.8308
LeftHand  0.214877 0.610626 -5.35795
RightShoulder  1.82866 4.05186 18.3949
RightArm  17.9785 26.9638 65.5025
RightForeArm  1.92215 28.5966 6.09199
RightHand  -0.0511292 -6.28498 1.90371
LeftUpLeg  -34.5239 -3.22387 5.21353
LeftLeg  11.4971 -21.764 -1.70099
LeftFoot  -0.70035 2.15025 -22.7764
LeftToes  9.43379e-011 5.24309e-011 -4.66411e-011
843
root  9.15407 36.402 15.2412 -173.829 72.185 -174.046
RightUpLeg  -15.9172 -0.154843 5.02334
RightLeg  46.3206 1.09927 0.916176
RightFoot  -28.7853 -0.460341 -1.72688
RightToes  -5.28216e-011 1.2921e-014 -6.02303e-014
Spine  12.6272 -0.774355 0.00347575
Spine1  3.30315 -0.0916838 -3.53873
HEad  -17.2682 8.93225 -11.7574
LeftShoulder1  1.70992 -3.01381 -20.9136
LeftArm  -11.5966 11.4685 -42.1786
LeftForeArm  -9.16057 -42.4908 -10.8206
LeftHand  0.209866 0.597703 -5.21896
RightShoulder  1.86104 4.20141 18.3292
RightArm  19.0482 28.2483 65.8504
RightForeArm  1.19979 28.4192 6.08801
RightHand  -0.0550388 -7.27416 0.87057
LeftUpLeg  -34.1902 0.143391 4.18301
LeftLeg  8.32226 -16.4306 -0.899306
LeftFoot  -4.52069 1.20287 -19.5663
LeftToes  9.43379e-011 5.24309e-011 -4.66411e-011
844
root  8.43768 36.6863 15.4776 -172.9 68.92 -173.312
RightUpLeg  -16.6423 -3.98173 5.39086
RightLeg  44.365 1.56669 1.33774
RightFoot  -26.7471 -0.447729 -1.96927
RightToes  -5.28216e-011 1.2921e-014 -6.02303e-014
Spine  12.1702 -0.655455 1.09573
Spine1  3.15339 0.0233133 -3.05036
HEad  -17.8131 7.37959 -11.1727
LeftShoulder1  1.70452 -2.96709 -21.0369
LeftArm  -12.3935 13.0356 -43.2277
LeftForeArm  -9.34297 -42.5732 -10.862
LeftHand  0.190773 0.663292 -4.82832
RightShoulder  1.88892 4.27123 18.4823
RightArm  20.3734 29.0838 66.1239
RightForeArm  0.254909 27.71 5.96873
RightHand  -0.0479406 -7.84254 0.222389
LeftUpLeg  -33.652 0.687415 4.17256
LeftLeg  5.88812 -6.89597 0.879012
LeftFoot  -1.2369 1.74268 -19.4659
LeftToes  9.43379e-011 5.24309e-011 -4.66411e-011
845
root  7.76157 37.0475 15.7298 -171.911 66.0174 -172.485
RightUpLeg  -16.9578 -6.30603 6.08999
RightLeg  41.6314 1.27985 0.931929
RightFoot  -24.351 -0.363538 -1.7418
RightToes  -5.28216e-011 1.2921e-014 -6.02303e-014
Spine  11.7797 -0.30028 2.29158
Spine1  3.07398 0.53011 -3.30465
HEad  -18.357 5.71651 -9.28137
LeftShoulder1  1.65365 -2.78616 -21.0061
LeftArm  -12.6575 13.9823 -43.8444
LeftForeArm  -9.05759 -42.1636 -10.6942
LeftHand  0.186629 0.690469 -4.75716
RightShoulder  1.93973 4.35577 18.9052
RightArm  20.8555 29.1021 66.1653
RightForeArm  -0.0741772 27.4335 5.92059
RightHand  -0.0417314 -8.38144 -0.153328
LeftUpLeg  -33.6699 0.00141098 5.11277
LeftLeg  7.53823 -2.98394 2.12632
LeftFoot  3.79831 2.06633 -15.6422
LeftToes  9.43379e-011 5.24309e-011 -4.66411e-011
